<svg width="900" height="520" xmlns="http://www.w3.org/2000/svg" font-family="JetBrains Mono, Consolas, monospace">
  <defs>
    <linearGradient id="bg" x1="0" y1="0" x2="1" y2="1">
      <stop offset="0%" stop-color="#06061A"/>
      <stop offset="100%" stop-color="#0B0B22"/>
    </linearGradient>
    <linearGradient id="cyan_grad" x1="0" y1="0" x2="1" y2="0">
      <stop offset="0%" stop-color="#00D4FF"/>
      <stop offset="100%" stop-color="#4D9FFF"/>
    </linearGradient>
    <filter id="glow">
      <feGaussianBlur stdDeviation="3" result="coloredBlur"/>
      <feMerge><feMergeNode in="coloredBlur"/><feMergeNode in="SourceGraphic"/></feMerge>
    </filter>
  </defs>
  <!-- Background -->
  <rect width="900" height="520" fill="url(#bg)" rx="16"/>
  <!-- Grid lines -->
  <g opacity="0.04" stroke="#00D4FF" stroke-width="0.5">
    <line x1="0" y1="40" x2="900" y2="40"/><line x1="0" y1="80" x2="900" y2="80"/>
    <line x1="0" y1="120" x2="900" y2="120"/><line x1="0" y1="160" x2="900" y2="160"/>
    <line x1="0" y1="200" x2="900" y2="200"/><line x1="0" y1="240" x2="900" y2="240"/>
    <line x1="0" y1="280" x2="900" y2="280"/><line x1="0" y1="320" x2="900" y2="320"/>
    <line x1="0" y1="360" x2="900" y2="360"/><line x1="0" y1="400" x2="900" y2="400"/>
    <line x1="0" y1="440" x2="900" y2="440"/><line x1="0" y1="480" x2="900" y2="480"/>
  </g>
  <!-- Header -->
  <rect width="900" height="64" fill="#0F0F2A" rx="16"/>
  <rect width="900" height="48" fill="#0F0F2A"/>
  <rect x="24" y="14" width="36" height="36" rx="8" fill="url(#cyan_grad)"/>
  <text x="42" y="37" text-anchor="middle" font-size="18" font-weight="900" fill="#000">N</text>
  <text x="72" y="30" font-size="16" font-weight="700" fill="#00D4FF" letter-spacing="3">NYX SENTINEL AI</text>
  <text x="72" y="46" font-size="10" fill="#7777AA" letter-spacing="1">AI-ENHANCED SOC &amp; DFIR PLATFORM</text>
  <text x="860" y="26" text-anchor="end" font-size="11" fill="#7777AA">v1.0.0</text>
  <text x="860" y="44" text-anchor="end" font-size="10" fill="#FF6B8A">● CONFIDENTIAL</text>
  <!-- Bottom border glow -->
  <line x1="0" y1="64" x2="900" y2="64" stroke="url(#cyan_grad)" stroke-width="1" opacity="0.6"/>

  <!-- Pipeline title -->
  <text x="450" y="102" text-anchor="middle" font-size="13" font-weight="700" fill="#7777AA" letter-spacing="2">SOC AUTOMATION PIPELINE</text>

  <!-- Pipeline boxes -->
  <!-- Stage 1 -->
  <rect x="30" y="118" width="120" height="72" rx="10" fill="#0F0F2A" stroke="#1E1E4A" stroke-width="1"/>
  <rect x="30" y="118" width="120" height="4" rx="2" fill="#00D4FF"/>
  <text x="90" y="148" text-anchor="middle" font-size="22">📥</text>
  <text x="90" y="166" text-anchor="middle" font-size="11" font-weight="700" fill="#00D4FF">1. PARSE</text>
  <text x="90" y="180" text-anchor="middle" font-size="9" fill="#7777AA">Wazuh JSON</text>

  <!-- Arrow -->
  <line x1="152" y1="154" x2="178" y2="154" stroke="#2A2A5A" stroke-width="2"/>
  <polygon points="178,150 188,154 178,158" fill="#2A2A5A"/>

  <!-- Stage 2 -->
  <rect x="190" y="118" width="120" height="72" rx="10" fill="#0F0F2A" stroke="#1E1E4A" stroke-width="1"/>
  <rect x="190" y="118" width="120" height="4" rx="2" fill="#00E676"/>
  <text x="250" y="148" text-anchor="middle" font-size="22">🔍</text>
  <text x="250" y="166" text-anchor="middle" font-size="11" font-weight="700" fill="#00E676">2. EXTRACT</text>
  <text x="250" y="180" text-anchor="middle" font-size="9" fill="#7777AA">10 IOC Types</text>

  <!-- Arrow -->
  <line x1="312" y1="154" x2="338" y2="154" stroke="#2A2A5A" stroke-width="2"/>
  <polygon points="338,150 348,154 338,158" fill="#2A2A5A"/>

  <!-- Stage 3 -->
  <rect x="350" y="118" width="120" height="72" rx="10" fill="#0F0F2A" stroke="#1E1E4A" stroke-width="1"/>
  <rect x="350" y="118" width="120" height="4" rx="2" fill="#4D9FFF"/>
  <text x="410" y="148" text-anchor="middle" font-size="22">🌐</text>
  <text x="410" y="166" text-anchor="middle" font-size="11" font-weight="700" fill="#4D9FFF">3. ENRICH</text>
  <text x="410" y="180" text-anchor="middle" font-size="9" fill="#7777AA">VT + AbuseIPDB</text>

  <!-- Arrow -->
  <line x1="472" y1="154" x2="498" y2="154" stroke="#2A2A5A" stroke-width="2"/>
  <polygon points="498,150 508,154 498,158" fill="#2A2A5A"/>

  <!-- Stage 4 -->
  <rect x="510" y="118" width="120" height="72" rx="10" fill="#0F0F2A" stroke="#1E1E4A" stroke-width="1"/>
  <rect x="510" y="118" width="120" height="4" rx="2" fill="#9D4EFF"/>
  <text x="570" y="148" text-anchor="middle" font-size="22">⚔️</text>
  <text x="570" y="166" text-anchor="middle" font-size="11" font-weight="700" fill="#9D4EFF">4. CLASSIFY</text>
  <text x="570" y="180" text-anchor="middle" font-size="9" fill="#7777AA">MITRE ATT&amp;CK</text>

  <!-- Arrow -->
  <line x1="632" y1="154" x2="658" y2="154" stroke="#2A2A5A" stroke-width="2"/>
  <polygon points="658,150 668,154 658,158" fill="#2A2A5A"/>

  <!-- Stage 5 -->
  <rect x="670" y="118" width="120" height="72" rx="10" fill="#0F0F2A" stroke="#1E1E4A" stroke-width="1"/>
  <rect x="670" y="118" width="120" height="4" rx="2" fill="#FFD600"/>
  <text x="730" y="148" text-anchor="middle" font-size="22">🗂️</text>
  <text x="730" y="166" text-anchor="middle" font-size="11" font-weight="700" fill="#FFD600">5. COLLECT</text>
  <text x="730" y="180" text-anchor="middle" font-size="9" fill="#7777AA">SHA-256 Evidence</text>

  <!-- Arrow DOWN from Stage 5 -->
  <line x1="730" y1="192" x2="730" y2="238" stroke="#2A2A5A" stroke-width="2"/>
  <polygon points="726,238 730,248 734,238" fill="#2A2A5A"/>

  <!-- Stage 6 (Report) - centered below -->
  <rect x="350" y="250" width="280" height="72" rx="10" fill="#0F0F2A" stroke="#1E1E4A" stroke-width="1"/>
  <rect x="350" y="250" width="280" height="4" rx="2" fill="url(#cyan_grad)"/>
  <text x="490" y="280" text-anchor="middle" font-size="22">📄</text>
  <text x="490" y="300" text-anchor="middle" font-size="11" font-weight="700" fill="#00D4FF">6. REPORT GENERATION</text>
  <text x="490" y="314" text-anchor="middle" font-size="9" fill="#7777AA">HTML (Jinja2) + PDF (fpdf2)</text>

  <!-- Arrow from Stage 5 to Report -->
  <line x1="730" y1="248" x2="630" y2="250" stroke="#2A2A5A" stroke-width="2"/>

  <!-- Stats boxes -->
  <rect x="30" y="356" width="190" height="88" rx="10" fill="#0F0F2A" stroke="#1E1E4A" stroke-width="1"/>
  <text x="125" y="382" text-anchor="middle" font-size="36" font-weight="900" fill="#00E676">145</text>
  <text x="125" y="402" text-anchor="middle" font-size="10" font-weight="700" fill="#7777AA" letter-spacing="1">TESTS PASSING</text>
  <text x="125" y="418" text-anchor="middle" font-size="9" fill="#2A2A5A">█████████████████████</text>
  <text x="125" y="432" text-anchor="middle" font-size="9" fill="#00E676">0 failures</text>

  <rect x="240" y="356" width="190" height="88" rx="10" fill="#0F0F2A" stroke="#1E1E4A" stroke-width="1"/>
  <text x="335" y="382" text-anchor="middle" font-size="36" font-weight="900" fill="#4D9FFF">28</text>
  <text x="335" y="402" text-anchor="middle" font-size="10" font-weight="700" fill="#7777AA" letter-spacing="1">MITRE TECHNIQUES</text>
  <text x="335" y="418" text-anchor="middle" font-size="9" fill="#7777AA">T1110 • T1059 • T1046</text>
  <text x="335" y="432" text-anchor="middle" font-size="9" fill="#7777AA">T1547 • T1068 • +23</text>

  <rect x="450" y="356" width="190" height="88" rx="10" fill="#0F0F2A" stroke="#1E1E4A" stroke-width="1"/>
  <text x="545" y="382" text-anchor="middle" font-size="36" font-weight="900" fill="#9D4EFF">5</text>
  <text x="545" y="402" text-anchor="middle" font-size="10" font-weight="700" fill="#7777AA" letter-spacing="1">SIGMA RULES</text>
  <text x="545" y="418" text-anchor="middle" font-size="9" fill="#7777AA">Brute Force • PowerShell</text>
  <text x="545" y="432" text-anchor="middle" font-size="9" fill="#7777AA">Recon • PrivEsc • Persist</text>

  <rect x="660" y="356" width="210" height="88" rx="10" fill="#0F0F2A" stroke="#1E1E4A" stroke-width="1"/>
  <text x="765" y="382" text-anchor="middle" font-size="36" font-weight="900" fill="#FFD600">10</text>
  <text x="765" y="402" text-anchor="middle" font-size="10" font-weight="700" fill="#7777AA" letter-spacing="1">IOC TYPES</text>
  <text x="765" y="418" text-anchor="middle" font-size="9" fill="#7777AA">IPv4 • Domain • SHA256</text>
  <text x="765" y="432" text-anchor="middle" font-size="9" fill="#7777AA">URL • Email • CVE • +4</text>

  <!-- Footer -->
  <line x1="0" y1="470" x2="900" y2="470" stroke="#1E1E4A" stroke-width="1"/>
  <text x="30" y="492" font-size="10" fill="#7777AA">Python 3.11+ • Pydantic v2 • httpx • tenacity • Jinja2 • fpdf2 • loguru • rich • pytest</text>
  <text x="870" y="492" text-anchor="end" font-size="10" fill="#7777AA">github.com/Huzaifa-Amin/nyx-sentinel-ai</text>
</svg>
